<?xml version="1.0" encoding="utf-8"?>
<!-- Generator: Adobe Illustrator 16.0.0, SVG Export Plug-In . SVG Version: 6.00 Build 0)  -->
<!DOCTYPE svg PUBLIC "-//W3C//DTD SVG 1.1//EN" "http://www.w3.org/Graphics/SVG/1.1/DTD/svg11.dtd">
<svg version="1.1" id="dsvfscfvsffg" xmlns="http://www.w3.org/2000/svg" xmlns:xlink="http://www.w3.org/1999/xlink" x="0px"
	 y="0px" width="100px" height="100px" viewBox="0 0 100 100" enable-background="new 0 0 100 100" xml:space="preserve">
<g>
	<path fill="#FFFFFF" d="M50,1.89c-26.548,0-48.11,21.563-48.11,48.109c0,26.548,21.562,48.11,48.11,48.11
		c26.547,0,48.109-21.563,48.109-48.11C98.109,23.452,76.547,1.89,50,1.89z M50,93.934c-24.23,0-43.937-19.705-43.937-43.935
		C6.063,25.77,25.77,6.062,50,6.062c24.229,0,43.938,19.708,43.938,43.937C93.938,74.229,74.229,93.934,50,93.934z"/>
	<path fill="#FFFFFF" d="M75.041,39.565H60.434V24.959c0-1.16-0.927-2.087-2.088-2.087H41.651c-1.16,0-2.086,0.927-2.086,2.087
		v14.606H24.959c-1.161,0-2.088,0.927-2.088,2.086v16.697c0,1.155,0.927,2.086,2.088,2.086h14.605v14.604
		c0,1.161,0.927,2.088,2.086,2.088h16.694c1.161,0,2.088-0.927,2.088-2.088V60.434h14.607c1.159,0,2.085-0.93,2.085-2.084V41.651
		C77.012,40.492,76.084,39.565,75.041,39.565z M73.068,56.26H72.95H58.346c-1.158,0-2.084,0.928-2.084,2.09v14.603H43.739V58.35
		c0-1.162-0.925-2.09-2.087-2.09H27.045V43.74h14.606c1.162,0,2.087-0.928,2.087-2.089V27.044h12.637v14.607
		c0,1.161,0.93,2.089,2.086,2.089h14.607V56.26L73.068,56.26z"/>
	<path fill="#FFFFFF" d="M50.027,59.277l8.338-24.007h6.472L53.611,64.729h-7.274L35.164,35.27h6.52L50.027,59.277z"/>
</g>
</svg>
