<?xml version="1.0" encoding="utf-8"?>
<!-- Generator: Adobe Illustrator 16.0.0, SVG Export Plug-In . SVG Version: 6.00 Build 0)  -->
<!DOCTYPE svg PUBLIC "-//W3C//DTD SVG 1.1//EN" "http://www.w3.org/Graphics/SVG/1.1/DTD/svg11.dtd">
<svg version="1.1" id="Layer_1" xmlns="http://www.w3.org/2000/svg" xmlns:xlink="http://www.w3.org/1999/xlink" x="0px" y="0px"
	 width="200px" height="40px" viewBox="0 0 200 40" enable-background="new 0 0 200 40" xml:space="preserve">
<g>
	<g>
		<path fill="#1CBDE4" d="M19.146,1.017C8.67,1.017,0.162,9.525,0.162,20c0,10.476,8.508,18.983,18.983,18.983
			c10.475,0,18.983-8.508,18.983-18.983C38.129,9.525,29.62,1.017,19.146,1.017z M19.146,37.335C9.584,37.335,1.809,29.561,1.809,20
			c0-9.562,7.776-17.337,17.336-17.337c9.56,0,17.336,7.776,17.336,17.337C36.482,29.561,28.706,37.335,19.146,37.335z"/>
		<path fill="#0A1938" d="M29.026,15.883h-5.764v-5.764c0-0.457-0.365-0.823-0.823-0.823h-6.587c-0.458,0-0.823,0.366-0.823,0.823
			v5.764H9.265c-0.458,0-0.824,0.366-0.824,0.822v6.589c0,0.456,0.366,0.823,0.824,0.823h5.763v5.763
			c0,0.457,0.366,0.823,0.823,0.823h6.587c0.458,0,0.823-0.366,0.823-0.823v-5.763h5.764c0.458,0,0.823-0.367,0.823-0.823v-6.588
			C29.803,16.249,29.438,15.883,29.026,15.883z M28.248,22.47h-0.046h-5.763c-0.457,0-0.822,0.366-0.822,0.824v5.761h-4.941v-5.761
			c0-0.458-0.366-0.824-0.824-0.824h-5.763v-4.94h5.763c0.458,0,0.824-0.367,0.824-0.824v-5.764h4.986v5.764
			c0,0.458,0.367,0.824,0.824,0.824h5.763V22.47L28.248,22.47z"/>
		<path fill="#1CBDE4" d="M19.156,23.661l3.29-9.473H25l-4.43,11.624H17.7l-4.409-11.624h2.573L19.156,23.661z"/>
	</g>
	<g>
		<path fill="#0A1938" d="M54.771,26.332l5.044-15.309h5.367L57.797,30.98h-6.124l-7.349-19.958h5.404L54.771,26.332z"/>
		<path fill="#0A1938" d="M68.371,7.799c-0.588-0.564-0.883-1.267-0.883-2.108c0-0.84,0.294-1.542,0.883-2.106
			c0.589-0.565,1.326-0.848,2.215-0.848c0.888,0,1.626,0.282,2.215,0.848c0.588,0.564,0.883,1.267,0.883,2.106
			c0,0.841-0.294,1.543-0.883,2.108c-0.589,0.564-1.328,0.846-2.215,0.846C69.697,8.646,68.958,8.363,68.371,7.799z M73.071,11.023
			V30.98h-5.043V11.023H73.071z"/>
		<path fill="#0A1938" d="M81.285,30.422c-1.297-0.588-2.323-1.387-3.08-2.396c-0.756-1.008-1.17-2.125-1.243-3.349h5.079
			c0.096,0.768,0.475,1.403,1.136,1.908c0.659,0.505,1.482,0.757,2.468,0.757c0.96,0,1.711-0.191,2.25-0.576
			c0.541-0.384,0.811-0.878,0.811-1.478c0-0.648-0.33-1.136-0.99-1.459c-0.662-0.325-1.711-0.679-3.152-1.063
			c-1.489-0.36-2.708-0.733-3.657-1.117c-0.949-0.385-1.765-0.973-2.449-1.765c-0.685-0.793-1.027-1.861-1.027-3.207
			c0-1.104,0.317-2.113,0.955-3.025c0.636-0.913,1.549-1.633,2.738-2.162c1.188-0.528,2.587-0.793,4.197-0.793
			c2.377,0,4.274,0.594,5.691,1.784c1.417,1.188,2.198,2.792,2.341,4.809h-4.828c-0.071-0.792-0.402-1.423-0.991-1.892
			c-0.588-0.468-1.375-0.702-2.359-0.702c-0.913,0-1.615,0.168-2.106,0.505c-0.493,0.336-0.739,0.804-0.739,1.405
			c0,0.672,0.336,1.182,1.009,1.531c0.672,0.348,1.717,0.702,3.134,1.063c1.441,0.36,2.629,0.732,3.565,1.116
			c0.938,0.385,1.748,0.979,2.432,1.785c0.685,0.803,1.039,1.867,1.063,3.188c0,1.153-0.318,2.186-0.956,3.099
			c-0.635,0.913-1.548,1.626-2.737,2.143c-1.188,0.516-2.576,0.774-4.16,0.774C84.046,31.304,82.582,31.01,81.285,30.422z"/>
		<path fill="#0A1938" d="M97.639,15.58c0.841-1.548,2.005-2.749,3.494-3.601c1.49-0.853,3.195-1.279,5.117-1.279
			c2.473,0,4.521,0.618,6.141,1.855c1.622,1.236,2.709,2.972,3.261,5.205h-5.44c-0.288-0.864-0.773-1.542-1.459-2.036
			c-0.684-0.491-1.53-0.738-2.539-0.738c-1.441,0-2.581,0.522-3.422,1.567c-0.842,1.044-1.262,2.528-1.262,4.449
			c0,1.897,0.42,3.367,1.262,4.413c0.841,1.045,1.981,1.566,3.422,1.566c2.04,0,3.373-0.912,3.998-2.738h5.44
			c-0.553,2.162-1.646,3.88-3.278,5.152s-3.675,1.908-6.123,1.908c-1.922,0-3.627-0.426-5.117-1.279
			c-1.488-0.851-2.653-2.052-3.494-3.602c-0.841-1.548-1.261-3.355-1.261-5.421C96.379,18.936,96.799,17.129,97.639,15.58z"/>
		<path fill="#0A1938" d="M119.272,15.563c0.804-1.561,1.896-2.762,3.277-3.603c1.381-0.84,2.924-1.26,4.629-1.26
			c1.488,0,2.793,0.301,3.907,0.9c1.118,0.601,2.013,1.357,2.685,2.27v-2.846h5.08V30.98h-5.08v-2.919
			c-0.648,0.938-1.544,1.711-2.684,2.324c-1.14,0.612-2.454,0.918-3.943,0.918c-1.682,0-3.213-0.432-4.594-1.297
			c-1.382-0.865-2.474-2.083-3.277-3.657c-0.806-1.571-1.207-3.379-1.207-5.42C118.065,18.912,118.467,17.124,119.272,15.563z
			 M133.051,17.85c-0.48-0.878-1.129-1.55-1.944-2.018c-0.818-0.468-1.693-0.702-2.631-0.702s-1.802,0.228-2.594,0.684
			s-1.436,1.123-1.928,2c-0.491,0.877-0.738,1.915-0.738,3.116s0.247,2.251,0.738,3.152c0.492,0.901,1.141,1.59,1.946,2.071
			c0.805,0.48,1.663,0.721,2.575,0.721c0.938,0,1.813-0.233,2.631-0.702c0.815-0.47,1.464-1.141,1.945-2.019
			c0.479-0.876,0.719-1.927,0.719-3.151S133.529,18.726,133.051,17.85z"/>
		<path fill="#0A1938" d="M151.369,11.635c1.045-0.6,2.239-0.9,3.584-0.9v5.295h-1.335c-1.583,0-2.778,0.374-3.583,1.117
			c-0.805,0.745-1.207,2.041-1.207,3.891v9.942h-5.043V11.023h5.043v3.098C149.478,13.064,150.324,12.236,151.369,11.635z"/>
		<path fill="#0A1938" d="M176.747,22.515h-14.59c0.12,1.441,0.624,2.57,1.513,3.386c0.889,0.816,1.98,1.226,3.277,1.226
			c1.874,0,3.207-0.806,4-2.414h5.44c-0.577,1.922-1.683,3.5-3.315,4.737c-1.635,1.237-3.64,1.854-6.017,1.854
			c-1.921,0-3.645-0.426-5.169-1.279c-1.525-0.851-2.714-2.059-3.566-3.619c-0.853-1.562-1.28-3.361-1.28-5.403
			c0-2.066,0.422-3.878,1.262-5.439c0.841-1.561,2.018-2.762,3.53-3.603c1.512-0.84,3.255-1.26,5.224-1.26
			c1.896,0,3.596,0.408,5.097,1.224c1.5,0.817,2.667,1.976,3.494,3.477c0.829,1.5,1.243,3.224,1.243,5.169
			C176.891,21.29,176.842,21.938,176.747,22.515z M171.667,19.128c-0.023-1.297-0.492-2.335-1.404-3.116
			c-0.914-0.78-2.03-1.17-3.351-1.17c-1.249,0-2.299,0.378-3.151,1.135c-0.854,0.756-1.375,1.807-1.568,3.151H171.667
			L171.667,19.128z"/>
		<path fill="#0A1938" d="M184.239,30.024c-1.537-0.851-2.743-2.058-3.619-3.619c-0.88-1.562-1.316-3.361-1.316-5.403
			c0-2.041,0.451-3.843,1.352-5.404c0.9-1.562,2.131-2.767,3.691-3.62c1.563-0.853,3.303-1.279,5.224-1.279
			c1.922,0,3.662,0.427,5.224,1.279c1.561,0.853,2.792,2.059,3.692,3.62c0.901,1.561,1.352,3.363,1.352,5.404
			c0,2.042-0.463,3.842-1.388,5.403c-0.924,1.562-2.174,2.769-3.745,3.619c-1.573,0.853-3.332,1.279-5.277,1.279
			C187.505,31.304,185.774,30.878,184.239,30.024z M192.003,26.243c0.804-0.444,1.446-1.11,1.927-2
			c0.479-0.887,0.722-1.968,0.722-3.241c0-1.898-0.5-3.356-1.495-4.377c-0.998-1.021-2.218-1.531-3.658-1.531
			s-2.649,0.51-3.62,1.531c-0.974,1.021-1.46,2.479-1.46,4.377c0,1.897,0.474,3.356,1.425,4.376
			c0.947,1.022,2.143,1.531,3.583,1.531C190.34,26.909,191.197,26.688,192.003,26.243z"/>
	</g>
</g>
</svg>
